<svg width="46" height="46" viewBox="0 0 46 46" fill="none" xmlns="http://www.w3.org/2000/svg">
<g filter="url(#filter0_dd_565_1092)">
<path d="M3 15C3 8.37258 8.37258 3 15 3H31C37.6274 3 43 8.37258 43 15V31C43 37.6274 37.6274 43 31 43H15C8.37258 43 3 37.6274 3 31V15Z" fill="url(#paint0_linear_565_1092)"/>
<path d="M26.6667 13.8333V16.95C26.6667 17.2538 26.9129 17.5 27.2167 17.5H30.3334M15.6667 14.3833V31.6167C15.6667 31.9204 15.9129 32.1667 16.2167 32.1667H29.7834C30.0871 32.1667 30.3334 31.9204 30.3334 31.6167V17.2695C30.3334 17.1236 30.2754 16.9837 30.1723 16.8806L27.2861 13.9944C27.183 13.8913 27.0431 13.8333 26.8972 13.8333H16.2167C15.9129 13.8333 15.6667 14.0796 15.6667 14.3833Z" stroke="#1A232D" stroke-width="1.67" stroke-linecap="round" stroke-linejoin="round"/>
</g>
<defs>
<filter id="filter0_dd_565_1092" x="0" y="0" width="46" height="46" filterUnits="userSpaceOnUse" color-interpolation-filters="sRGB">
<feFlood flood-opacity="0" result="BackgroundImageFix"/>
<feColorMatrix in="SourceAlpha" type="matrix" values="0 0 0 0 0 0 0 0 0 0 0 0 0 0 0 0 0 0 127 0" result="hardAlpha"/>
<feMorphology radius="3" operator="dilate" in="SourceAlpha" result="effect1_dropShadow_565_1092"/>
<feOffset/>
<feComposite in2="hardAlpha" operator="out"/>
<feColorMatrix type="matrix" values="0 0 0 0 0.94902 0 0 0 0 0.956863 0 0 0 0 0.968627 0 0 0 1 0"/>
<feBlend mode="normal" in2="BackgroundImageFix" result="effect1_dropShadow_565_1092"/>
<feColorMatrix in="SourceAlpha" type="matrix" values="0 0 0 0 0 0 0 0 0 0 0 0 0 0 0 0 0 0 127 0" result="hardAlpha"/>
<feMorphology radius="2" operator="dilate" in="SourceAlpha" result="effect2_dropShadow_565_1092"/>
<feOffset/>
<feComposite in2="hardAlpha" operator="out"/>
<feColorMatrix type="matrix" values="0 0 0 0 1 0 0 0 0 1 0 0 0 0 1 0 0 0 1 0"/>
<feBlend mode="normal" in2="effect1_dropShadow_565_1092" result="effect2_dropShadow_565_1092"/>
<feBlend mode="normal" in="SourceGraphic" in2="effect2_dropShadow_565_1092" result="shape"/>
</filter>
<linearGradient id="paint0_linear_565_1092" x1="23" y1="3" x2="23" y2="43" gradientUnits="userSpaceOnUse">
<stop stop-color="#F9FAFB"/>
<stop offset="1" stop-color="#F2F4F7"/>
</linearGradient>
</defs>
</svg>
